<?xml version="1.0" encoding="utf-8"?>
<!-- Generator: Adobe Illustrator 24.1.1, SVG Export Plug-In . SVG Version: 6.00 Build 0)  -->
<svg version="1.1" id="Layer_1" xmlns="http://www.w3.org/2000/svg" xmlns:xlink="http://www.w3.org/1999/xlink" x="0px" y="0px"
	 viewBox="0 0 512 512" style="enable-background:new 0 0 512 512;" xml:space="preserve">
<g>
	<path d="M105,36.8c0,3.7,0,7.4,0,7.4c0,14.7,11,25.8,25.8,25.8c11,0,18.4-7.4,22.1-18.4l7.4-18.4l206.3,84.7l-143.6,99.5
		c-14.7,11-14.7,25.8-11,40.5l33.1,77.4l-47.9,143.6c-7.4,18.4,7.4,33.2,22.1,33.2c11.1,0,18.4-3.7,22.1-18.4l51.6-147.3l3.7,11
		v128.9c0,0,0,25.8,25.8,25.8c25.8,0,25.8-25.8,25.8-25.8V364.7c0-7.4,0-11.1-3.7-18.4L292.8,221l99.5-70c7.4-7.4,14.7-11,14.7-22.1
		c0-11-7.4-18.4-14.7-22.1L127.1,0l-7.4,3.7L105,36.8z M182.3,106.8c-29.5,0-55.3,25.8-55.3,55.3c0,29.5,25.8,55.3,55.3,55.3
		c29.5,0,55.3-25.8,55.3-55.3C237.6,132.6,211.8,106.8,182.3,106.8z"/>
</g>
</svg>
